<svg width="300" height="300" xmlns="http://www.w3.org/2000/svg">
 <!-- Created with SVG Editor - http://github.com/mzalive/SVG Editor/ -->

 <g>
  <title>background</title>
  <rect fill="#fff" id="canvas_background" height="302" width="302" y="-1" x="-1"/>
  <g display="none" overflow="visible" y="0" x="0" height="100%" width="100%" id="canvasGrid">
   <rect fill="url(#gridpattern)" stroke-width="0" y="0" x="0" height="100%" width="100%"/>
  </g>
 </g>
 <g>
  <title>Layer 1</title>
  <g stroke="null" id="svg_5">
   <path stroke="null" id="svg_4" fill="#000000" d="m49.977203,0c-27.601576,0 -49.977203,22.375627 -49.977203,49.977203l0,199.908811c0,27.602409 22.375627,49.977203 49.977203,49.977203l199.908811,0c27.602409,0 49.977203,-22.374794 49.977203,-49.977203l0,-199.908811c0,-27.601576 -22.374794,-49.977203 -49.977203,-49.977203l-199.908811,0zm196.576998,93.290779c5.520815,-7.360476 4.028163,-17.802379 -3.331814,-23.322695c-7.359976,-5.520315 -17.80188,-4.028662 -23.322695,3.331814l-88.429663,117.906217l-36.394898,-36.395065c-6.505866,-6.505366 -17.053721,-6.505366 -23.559587,0c-6.505699,6.505366 -6.505699,17.053887 0,23.559253l49.977369,49.977203c3.415109,3.415109 8.142952,5.179304 12.960755,4.837793c4.817802,-0.343177 9.249114,-2.758742 12.146126,-6.621979l99.954406,-133.272541z" clip-rule="evenodd" fill-rule="evenodd"/>
  </g>
 </g>
</svg>